<?xml version="1.0" standalone="no"?>
<!DOCTYPE svg PUBLIC "-//W3C//DTD SVG 20010904//EN"
 "http://www.w3.org/TR/2001/REC-SVG-20010904/DTD/svg10.dtd">
<svg version="1.0" xmlns="http://www.w3.org/2000/svg"
 width="781.000000pt" height="781.000000pt" viewBox="0 0 781.000000 781.000000"
 preserveAspectRatio="xMidYMid meet">
<metadata>
Created by potrace 1.14, written by Peter Selinger 2001-2017
</metadata>
<g transform="translate(0.000000,781.000000) scale(0.100000,-0.100000)"
fill="#000000" stroke="none">
<path d="M3668 7805 c-2 -1 -45 -6 -96 -9 -51 -4 -102 -9 -112 -11 -10 -2 -45
-6 -77 -10 -32 -3 -65 -8 -73 -10 -8 -2 -35 -7 -60 -10 -25 -3 -52 -8 -60 -10
-8 -2 -28 -7 -45 -10 -188 -32 -539 -138 -720 -216 -49 -21 -95 -39 -101 -39
-6 0 -17 -7 -24 -15 -7 -9 -15 -13 -18 -11 -6 6 -262 -125 -356 -183 -38 -22
-69 -41 -71 -41 -2 0 -54 -34 -117 -77 -328 -221 -585 -455 -862 -783 -59 -70
-230 -309 -283 -395 -226 -372 -383 -742 -478 -1130 -37 -153 -71 -331 -81
-428 -3 -34 -8 -64 -9 -67 -10 -17 -20 -247 -20 -450 1 -228 7 -345 25 -480 5
-36 12 -87 15 -115 4 -27 10 -66 15 -85 5 -19 11 -51 14 -70 17 -109 74 -324
126 -480 74 -219 187 -478 286 -652 26 -45 55 -96 63 -111 71 -129 240 -362
390 -542 107 -127 327 -344 456 -450 61 -49 112 -92 115 -95 29 -33 331 -233
478 -317 358 -203 848 -382 1197 -436 17 -3 57 -10 90 -15 33 -6 85 -14 115
-18 30 -4 66 -8 80 -10 95 -13 227 -18 435 -18 254 0 386 7 525 30 14 2 45 6
70 10 25 3 90 14 145 25 55 11 111 23 125 25 321 62 752 234 1132 452 135 77
386 258 538 387 212 181 471 458 605 649 11 16 29 40 40 55 93 122 233 358
330 556 65 133 173 395 196 475 16 56 14 52 22 70 26 62 111 425 131 560 12
83 34 279 37 335 10 179 1 628 -15 710 -2 11 -7 45 -10 76 -4 31 -9 67 -11 80
-3 13 -12 67 -21 119 -20 119 -82 362 -127 500 -307 936 -961 1725 -1832 2208
-103 57 -346 172 -425 201 -19 8 -48 19 -65 26 -52 22 -266 92 -367 119 -177
49 -375 87 -543 105 -55 6 -118 14 -140 17 -40 6 -571 14 -577 9z"/>
</g>
</svg>
